# GameDirector
mtllib Gate.mtl

g grp1
v -0.089100 8.199565 0.086906
v 0.910900 11.660483 0.086906
v 0.910900 8.199565 0.086906
v -0.089100 11.660483 0.086906
v -0.089100 11.660483 -10.837770
v 0.910900 8.199565 -10.837770
v 0.910900 11.660483 -10.837770
v -0.089100 8.199565 -10.837770
v 0.910900 8.199565 0.086906
v 0.910900 11.660483 -0.860914
v 0.910900 8.199565 -0.860914
v 0.910900 11.660483 0.086906
v -0.089100 8.199565 -10.837770
v -0.089100 11.660483 -9.985271
v -0.089100 8.199565 -9.985271
v -0.089100 11.660483 -10.837770
v -0.089100 8.199565 -9.985271
v 0.910900 8.199565 -0.860914
v 0.910900 8.199565 -9.985271
v -0.089100 8.199565 -0.860914
v 0.910900 11.660483 -9.985271
v 0.910900 8.199565 -10.837770
v 0.910900 8.199565 -9.985271
v 0.910900 11.660483 -10.837770
v -0.089100 8.199565 -0.860914
v -0.089100 11.660483 -0.860914
v -0.089100 11.660483 -0.860914
v 0.910900 11.660483 -9.985271
v 0.910900 11.660483 -0.860914
v -0.089100 11.660483 -9.985271
v -0.089100 8.199565 0.086906
v -0.089100 11.660483 0.086906
v -0.089100 18.358189 0.086906
v 0.910900 20.310665 0.086906
v 0.910900 18.358189 0.086906
v -0.089100 20.310665 0.086906
v -0.089100 20.310665 -10.837770
v 0.910900 18.358189 -10.837770
v 0.910900 20.310665 -10.837770
v -0.089100 18.358189 -10.837770
v 0.910900 18.358189 0.086906
v 0.910900 20.310665 -0.860914
v 0.910900 18.358189 -0.860914
v 0.910900 20.310665 0.086906
v -0.089100 18.358189 -10.837770
v -0.089100 20.310665 -9.985271
v -0.089100 18.358189 -9.985270
v -0.089100 20.310665 -10.837770
v -0.089100 18.358189 -9.985270
v 0.910900 18.358189 -0.860914
v 0.910900 18.358189 -9.985270
v -0.089100 18.358189 -0.860914
v 0.910900 20.310665 -9.985271
v 0.910900 18.358189 -10.837770
v 0.910900 18.358189 -9.985270
v 0.910900 20.310665 -10.837770
v -0.089100 18.358189 -0.860914
v -0.089100 20.310665 -0.860914
v -0.089100 18.358189 0.086906
v -0.089100 20.310665 0.086906
v 0.910900 18.358189 -9.985270
v -0.089100 11.660483 -9.985271
v -0.089100 18.358189 -9.985270
v 0.910900 11.660483 -9.985271
v -0.089100 18.358189 -0.860914
v 0.910900 11.660483 -0.860914
v 0.910900 18.358189 -0.860914
v -0.089100 11.660483 -0.860914
v -0.089100 0.016327 0.086906
v 0.910900 1.968802 0.086906
v 0.910900 0.016327 0.086906
v -0.089100 1.968802 0.086906
v -0.089100 1.968802 -10.837770
v 0.910900 0.016327 -10.837770
v 0.910900 1.968802 -10.837770
v -0.089100 0.016327 -10.837770
v 0.910900 0.016327 0.086906
v 0.910900 1.968802 -0.860914
v 0.910900 0.016327 -0.860914
v 0.910900 1.968802 0.086906
v -0.089100 0.016327 -10.837770
v -0.089100 1.968802 -9.985271
v -0.089100 0.016327 -9.985270
v -0.089100 1.968802 -10.837770
v 0.910900 1.968802 -9.985271
v 0.910900 0.016327 -10.837770
v 0.910900 0.016327 -9.985270
v 0.910900 1.968802 -10.837770
v -0.089100 0.016327 -0.860914
v -0.089100 1.968802 -0.860914
v -0.089100 1.968802 -0.860914
v 0.910900 1.968802 -9.985271
v 0.910900 1.968802 -0.860914
v -0.089100 1.968802 -9.985271
v -0.089100 0.016327 0.086906
v -0.089100 1.968802 0.086906
v 0.910900 1.968802 -0.860914
v -0.089100 8.199565 -0.860914
v -0.089100 1.968802 -0.860914
v 0.910900 8.199565 -0.860914
v -0.089100 1.968802 -9.985271
v 0.910900 8.199565 -9.985271
v 0.910900 1.968802 -9.985271
v -0.089100 8.199565 -9.985271
v 0.034365 1.910951 -2.001654
v 0.779013 18.475830 -2.001669
v 0.779011 1.910951 -2.001654
v 0.034365 18.475830 -2.001669
v 0.034365 18.475830 -2.203302
v 0.779011 1.910951 -2.203287
v 0.779013 18.475830 -2.203302
v 0.034365 1.910951 -2.203287
v 0.779011 1.910951 -2.001654
v 0.779013 18.475830 -2.203302
v 0.779011 1.910951 -2.203287
v 0.779013 18.475830 -2.001669
v 0.034365 1.910951 -2.203287
v 0.034365 18.475830 -2.001669
v 0.034365 1.910951 -2.001654
v 0.034365 18.475830 -2.203302
v 0.034365 1.910951 -3.575506
v 0.779011 18.475834 -3.575506
v 0.779011 1.910951 -3.575506
v 0.034365 18.475834 -3.575506
v 0.034365 18.475834 -3.777139
v 0.779011 1.910951 -3.777139
v 0.779011 18.475834 -3.777139
v 0.034365 1.910951 -3.777139
v 0.779011 1.910951 -3.575506
v 0.779011 18.475834 -3.777139
v 0.779011 1.910951 -3.777139
v 0.779011 18.475834 -3.575506
v 0.034365 1.910951 -3.777139
v 0.034365 18.475834 -3.575506
v 0.034365 1.910951 -3.575506
v 0.034365 18.475834 -3.777139
v 0.034365 1.910951 -5.223219
v 0.779011 18.475834 -5.223219
v 0.779011 1.910951 -5.223219
v 0.034365 18.475834 -5.223219
v 0.034365 18.475834 -5.424852
v 0.779011 1.910951 -5.424852
v 0.779011 18.475834 -5.424852
v 0.034365 1.910951 -5.424852
v 0.779011 1.910951 -5.223219
v 0.779011 18.475834 -5.424852
v 0.779011 1.910951 -5.424852
v 0.779011 18.475834 -5.223219
v 0.034365 1.910951 -5.424852
v 0.034365 18.475834 -5.223219
v 0.034365 1.910951 -5.223219
v 0.034365 18.475834 -5.424852
v 0.034365 1.910951 -6.955034
v 0.779011 18.475834 -6.955034
v 0.779011 1.910951 -6.955034
v 0.034365 18.475834 -6.955034
v 0.034365 18.475834 -7.156668
v 0.779011 1.910951 -7.156668
v 0.779011 18.475834 -7.156668
v 0.034365 1.910951 -7.156668
v 0.779011 1.910951 -6.955034
v 0.779011 18.475834 -7.156668
v 0.779011 1.910951 -7.156668
v 0.779011 18.475834 -6.955034
v 0.034365 1.910951 -7.156668
v 0.034365 18.475834 -6.955034
v 0.034365 1.910951 -6.955034
v 0.034365 18.475834 -7.156668
v 0.034365 1.910951 -8.541977
v 0.779011 18.475834 -8.541977
v 0.779011 1.910951 -8.541977
v 0.034365 18.475834 -8.541977
v 0.034365 18.475834 -8.743610
v 0.779011 1.910951 -8.743610
v 0.779011 18.475834 -8.743610
v 0.034365 1.910951 -8.743610
v 0.779011 1.910951 -8.541977
v 0.779011 18.475834 -8.743610
v 0.779011 1.910951 -8.743610
v 0.779011 18.475834 -8.541977
v 0.034365 1.910951 -8.743610
v 0.034365 18.475834 -8.541977
v 0.034365 1.910951 -8.541977
v 0.034365 18.475834 -8.743610
vt 0.487495 0.403228
vt 0.528622 0.573764
vt 0.528622 0.403228
vt 0.487495 0.573764
vt 0.487495 0.573764
vt 0.528622 0.403228
vt 0.528622 0.573764
vt 0.487495 0.403228
vt 0.486283 0.403228
vt 0.529670 0.573764
vt 0.529670 0.403228
vt 0.486283 0.573764
vt 1.000503 0.403228
vt 0.957919 0.573764
vt 0.957919 0.403228
vt 1.000503 0.573764
vt 0.529670 0.348731
vt 0.901556 0.403951
vt 0.529670 0.403951
vt 0.901556 0.348731
vt 0.957919 0.573764
vt 1.000503 0.403228
vt 0.957919 0.403228
vt 1.000503 0.573764
vt 0.529670 0.403228
vt 0.529670 0.573764
vt 0.901556 0.348731
vt 0.529670 0.403951
vt 0.901556 0.403951
vt 0.529670 0.348731
vt 0.486283 0.403228
vt 0.486283 0.573764
vt 0.487495 0.903792
vt 0.528622 1.000000
vt 0.528622 0.903792
vt 0.487495 1.000000
vt 0.487495 1.000000
vt 0.528622 0.903792
vt 0.528622 1.000000
vt 0.487495 0.903792
vt 0.486283 0.903792
vt 0.529670 1.000000
vt 0.529670 0.903792
vt 0.486283 1.000000
vt 1.000503 0.903792
vt 0.957919 1.000000
vt 0.957919 0.903792
vt 1.000503 1.000000
vt 0.529670 0.348731
vt 0.901556 0.403951
vt 0.529670 0.403951
vt 0.901556 0.348731
vt 0.957919 1.000000
vt 1.000503 0.903792
vt 0.957919 0.903792
vt 1.000503 1.000000
vt 0.529670 0.903792
vt 0.529670 1.000000
vt 0.486283 0.903792
vt 0.486283 1.000000
vt 0.957919 0.403670
vt 0.901559 0.096410
vt 0.901559 0.403670
vt 0.957919 0.096410
vt 0.901559 0.403670
vt 0.957919 0.096410
vt 0.957919 0.403670
vt 0.901559 0.096410
vt 0.487495 0.004173
vt 0.528622 0.096208
vt 0.528622 0.004173
vt 0.487495 0.096208
vt 0.487495 0.096208
vt 0.528622 0.004173
vt 0.528622 0.096208
vt 0.487495 0.004173
vt 0.486283 0.004173
vt 0.529670 0.096208
vt 0.529670 0.004173
vt 0.486283 0.096208
vt 1.000503 0.004173
vt 0.957919 0.096208
vt 0.957919 0.004173
vt 1.000503 0.096208
vt 0.957919 0.096208
vt 1.000503 0.004173
vt 0.957919 0.004173
vt 1.000503 0.096208
vt 0.529670 0.004173
vt 0.529670 0.096208
vt 0.901556 0.348731
vt 0.529670 0.403951
vt 0.901556 0.403951
vt 0.529670 0.348731
vt 0.486283 0.004173
vt 0.486283 0.096208
vt 0.957919 0.096410
vt 0.901559 0.403670
vt 0.901559 0.096410
vt 0.957919 0.403670
vt 0.901559 0.096410
vt 0.957919 0.403670
vt 0.957919 0.096410
vt 0.901559 0.403670
vt 0.530172 0.780370
vt 0.957919 0.735417
vt 0.530172 0.735417
vt 0.957919 0.780370
vt 0.957919 0.780370
vt 0.530172 0.735417
vt 0.957919 0.735417
vt 0.530172 0.780370
vt 0.530172 0.801845
vt 0.957919 0.780285
vt 0.530172 0.780286
vt 0.957919 0.801845
vt 0.530172 0.780286
vt 0.957919 0.801845
vt 0.530172 0.801845
vt 0.957919 0.780285
vt 0.957919 0.859055
vt 0.530172 0.814102
vt 0.957919 0.814102
vt 0.530172 0.859055
vt 0.530172 0.859055
vt 0.957919 0.814102
vt 0.530172 0.814102
vt 0.957919 0.859055
vt 0.957919 0.880530
vt 0.530172 0.858970
vt 0.957919 0.858971
vt 0.530172 0.880530
vt 0.957919 0.858971
vt 0.530172 0.880530
vt 0.957919 0.880530
vt 0.530172 0.858970
vt 0.530172 0.622971
vt 0.957919 0.578018
vt 0.530172 0.578018
vt 0.957919 0.622971
vt 0.957919 0.622971
vt 0.530172 0.578018
vt 0.957919 0.578018
vt 0.530172 0.622971
vt 0.530172 0.644446
vt 0.957919 0.622886
vt 0.530172 0.622886
vt 0.957919 0.644445
vt 0.530172 0.622886
vt 0.957919 0.644445
vt 0.530172 0.644446
vt 0.957919 0.622886
vt 0.957919 0.780370
vt 0.530172 0.735417
vt 0.957919 0.735417
vt 0.530172 0.780370
vt 0.530172 0.780370
vt 0.957919 0.735417
vt 0.530172 0.735417
vt 0.957919 0.780370
vt 0.957919 0.801845
vt 0.530172 0.780285
vt 0.957919 0.780286
vt 0.530172 0.801845
vt 0.957919 0.780286
vt 0.530172 0.801845
vt 0.957919 0.801845
vt 0.530172 0.780285
vt 0.530172 0.698727
vt 0.957919 0.653774
vt 0.530172 0.653774
vt 0.957919 0.698727
vt 0.957919 0.698727
vt 0.530172 0.653774
vt 0.957919 0.653774
vt 0.530172 0.698727
vt 0.530172 0.720202
vt 0.957919 0.698642
vt 0.530172 0.698643
vt 0.957919 0.720202
vt 0.530172 0.698643
vt 0.957919 0.720202
vt 0.530172 0.720202
vt 0.957919 0.698642
vn -0.000000 0.000000 1.000000
vn -0.000000 0.000000 1.000000
vn -0.000000 0.000000 1.000000
vn -0.000000 0.000000 1.000000
vn -0.000000 0.000000 -1.000000
vn -0.000000 0.000000 -1.000000
vn -0.000000 0.000000 -1.000000
vn -0.000000 0.000000 -1.000000
vn 1.000000 0.000000 0.000000
vn 1.000000 0.000000 0.000000
vn 1.000000 0.000000 0.000000
vn 1.000000 0.000000 0.000000
vn -1.000000 0.000000 0.000000
vn -1.000000 0.000000 0.000000
vn -1.000000 0.000000 0.000000
vn -1.000000 0.000000 0.000000
vn -0.000000 -1.000000 0.000000
vn -0.000000 -1.000000 0.000000
vn -0.000000 -1.000000 0.000000
vn -0.000000 -1.000000 0.000000
vn 1.000000 0.000000 0.000000
vn 1.000000 0.000000 0.000000
vn 1.000000 0.000000 0.000000
vn 1.000000 0.000000 0.000000
vn -1.000000 0.000000 0.000000
vn -1.000000 0.000000 0.000000
vn -0.000000 1.000000 0.000000
vn -0.000000 1.000000 0.000000
vn -0.000000 1.000000 0.000000
vn -0.000000 1.000000 0.000000
vn -1.000000 0.000000 0.000000
vn -1.000000 0.000000 0.000000
vn -0.000000 0.000000 1.000000
vn -0.000000 0.000000 1.000000
vn -0.000000 0.000000 1.000000
vn -0.000000 0.000000 1.000000
vn -0.000000 0.000000 -1.000000
vn -0.000000 0.000000 -1.000000
vn -0.000000 0.000000 -1.000000
vn -0.000000 0.000000 -1.000000
vn 1.000000 0.000000 0.000000
vn 1.000000 0.000000 0.000000
vn 1.000000 0.000000 0.000000
vn 1.000000 0.000000 0.000000
vn -1.000000 0.000000 0.000000
vn -1.000000 0.000000 0.000000
vn -1.000000 0.000000 0.000000
vn -1.000000 0.000000 0.000000
vn -0.000000 -1.000000 0.000000
vn -0.000000 -1.000000 0.000000
vn -0.000000 -1.000000 0.000000
vn -0.000000 -1.000000 0.000000
vn 1.000000 0.000000 0.000000
vn 1.000000 0.000000 0.000000
vn 1.000000 0.000000 0.000000
vn 1.000000 0.000000 0.000000
vn -1.000000 0.000000 0.000000
vn -1.000000 0.000000 0.000000
vn -1.000000 0.000000 0.000000
vn -1.000000 0.000000 0.000000
vn -0.000000 0.000000 1.000000
vn -0.000000 0.000000 1.000000
vn -0.000000 0.000000 1.000000
vn -0.000000 0.000000 1.000000
vn -0.000000 0.000000 -1.000000
vn -0.000000 0.000000 -1.000000
vn -0.000000 0.000000 -1.000000
vn -0.000000 0.000000 -1.000000
vn -0.000000 0.000000 1.000000
vn -0.000000 0.000000 1.000000
vn -0.000000 0.000000 1.000000
vn -0.000000 0.000000 1.000000
vn -0.000000 0.000000 -1.000000
vn -0.000000 0.000000 -1.000000
vn -0.000000 0.000000 -1.000000
vn -0.000000 0.000000 -1.000000
vn 1.000000 0.000000 0.000000
vn 1.000000 0.000000 0.000000
vn 1.000000 0.000000 0.000000
vn 1.000000 0.000000 0.000000
vn -1.000000 0.000000 0.000000
vn -1.000000 0.000000 0.000000
vn -1.000000 0.000000 0.000000
vn -1.000000 0.000000 0.000000
vn 1.000000 0.000000 0.000000
vn 1.000000 0.000000 0.000000
vn 1.000000 0.000000 0.000000
vn 1.000000 0.000000 0.000000
vn -1.000000 0.000000 0.000000
vn -1.000000 0.000000 0.000000
vn -0.000000 1.000000 0.000000
vn -0.000000 1.000000 0.000000
vn -0.000000 1.000000 0.000000
vn -0.000000 1.000000 0.000000
vn -1.000000 0.000000 0.000000
vn -1.000000 0.000000 0.000000
vn -0.000000 0.000000 -1.000000
vn -0.000000 0.000000 -1.000000
vn -0.000000 0.000000 -1.000000
vn -0.000000 0.000000 -1.000000
vn -0.000000 0.000000 1.000000
vn -0.000000 0.000000 1.000000
vn -0.000000 0.000000 1.000000
vn -0.000000 0.000000 1.000000
vn -0.000000 0.000001 1.000000
vn -0.000000 0.000001 1.000000
vn -0.000000 0.000001 1.000000
vn -0.000000 0.000001 1.000000
vn -0.000001 -0.000001 -1.000000
vn -0.000001 -0.000001 -1.000000
vn -0.000001 -0.000001 -1.000000
vn -0.000001 -0.000001 -1.000000
vn 1.000000 0.000000 0.000000
vn 1.000000 0.000000 0.000000
vn 1.000000 0.000000 0.000000
vn 1.000000 0.000000 0.000000
vn -1.000000 0.000000 0.000000
vn -1.000000 0.000000 0.000000
vn -1.000000 0.000000 0.000000
vn -1.000000 0.000000 0.000000
vn -0.000000 0.000000 1.000000
vn -0.000000 0.000000 1.000000
vn -0.000000 0.000000 1.000000
vn -0.000000 0.000000 1.000000
vn -0.000000 0.000000 -1.000000
vn -0.000000 0.000000 -1.000000
vn -0.000000 0.000000 -1.000000
vn -0.000000 0.000000 -1.000000
vn 1.000000 0.000000 0.000000
vn 1.000000 0.000000 0.000000
vn 1.000000 0.000000 0.000000
vn 1.000000 0.000000 0.000000
vn -1.000000 0.000000 0.000000
vn -1.000000 0.000000 0.000000
vn -1.000000 0.000000 0.000000
vn -1.000000 0.000000 0.000000
vn -0.000000 0.000000 1.000000
vn -0.000000 0.000000 1.000000
vn -0.000000 0.000000 1.000000
vn -0.000000 0.000000 1.000000
vn -0.000000 0.000000 -1.000000
vn -0.000000 0.000000 -1.000000
vn -0.000000 0.000000 -1.000000
vn -0.000000 0.000000 -1.000000
vn 1.000000 0.000000 0.000000
vn 1.000000 0.000000 0.000000
vn 1.000000 0.000000 0.000000
vn 1.000000 0.000000 0.000000
vn -1.000000 0.000000 0.000000
vn -1.000000 0.000000 0.000000
vn -1.000000 0.000000 0.000000
vn -1.000000 0.000000 0.000000
vn -0.000000 0.000000 1.000000
vn -0.000000 0.000000 1.000000
vn -0.000000 0.000000 1.000000
vn -0.000000 0.000000 1.000000
vn -0.000000 0.000000 -1.000000
vn -0.000000 0.000000 -1.000000
vn -0.000000 0.000000 -1.000000
vn -0.000000 0.000000 -1.000000
vn 1.000000 0.000000 0.000000
vn 1.000000 0.000000 0.000000
vn 1.000000 0.000000 0.000000
vn 1.000000 0.000000 0.000000
vn -1.000000 0.000000 0.000000
vn -1.000000 0.000000 0.000000
vn -1.000000 0.000000 0.000000
vn -1.000000 0.000000 0.000000
vn -0.000000 0.000000 1.000000
vn -0.000000 0.000000 1.000000
vn -0.000000 0.000000 1.000000
vn -0.000000 0.000000 1.000000
vn -0.000000 0.000000 -1.000000
vn -0.000000 0.000000 -1.000000
vn -0.000000 0.000000 -1.000000
vn -0.000000 0.000000 -1.000000
vn 1.000000 0.000000 0.000000
vn 1.000000 0.000000 0.000000
vn 1.000000 0.000000 0.000000
vn 1.000000 0.000000 0.000000
vn -1.000000 0.000000 0.000000
vn -1.000000 0.000000 0.000000
vn -1.000000 0.000000 0.000000
vn -1.000000 0.000000 0.000000
usemtl mat0
f 3/3/3 2/2/2 1/1/1 
f 2/2/2 4/4/4 1/1/1 
f 7/7/7 6/6/6 5/5/5 
f 6/6/6 8/8/8 5/5/5 
f 11/11/11 10/10/10 9/9/9 
f 10/10/10 12/12/12 9/9/9 
f 15/15/15 14/14/14 13/13/13 
f 14/14/14 16/16/16 13/13/13 
f 19/19/19 18/18/18 17/17/17 
f 18/18/18 20/20/20 17/17/17 
f 23/23/23 22/22/22 21/21/21 
f 22/22/22 24/24/24 21/21/21 
f 15/15/15 25/25/25 14/14/14 
f 25/25/25 26/26/26 14/14/14 
f 29/29/29 28/28/28 27/27/27 
f 28/28/28 30/30/30 27/27/27 
f 11/11/11 23/23/23 10/10/10 
f 23/23/23 21/21/21 10/10/10 
f 25/25/25 31/31/31 26/26/26 
f 31/31/31 32/32/32 26/26/26 
f 35/35/35 34/34/34 33/33/33 
f 34/34/34 36/36/36 33/33/33 
f 39/39/39 38/38/38 37/37/37 
f 38/38/38 40/40/40 37/37/37 
f 43/43/43 42/42/42 41/41/41 
f 42/42/42 44/44/44 41/41/41 
f 47/47/47 46/46/46 45/45/45 
f 46/46/46 48/48/48 45/45/45 
f 51/51/51 50/50/50 49/49/49 
f 50/50/50 52/52/52 49/49/49 
f 55/55/55 54/54/54 53/53/53 
f 54/54/54 56/56/56 53/53/53 
f 47/47/47 57/57/57 46/46/46 
f 57/57/57 58/58/58 46/46/46 
f 43/43/43 55/55/55 42/42/42 
f 55/55/55 53/53/53 42/42/42 
f 57/57/57 59/59/59 58/58/58 
f 59/59/59 60/60/60 58/58/58 
f 38/38/38 7/7/7 40/40/40 
f 7/7/7 5/5/5 40/40/40 
f 55/55/55 21/21/21 54/54/54 
f 21/21/21 24/24/24 54/54/54 
f 63/63/63 62/62/62 61/61/61 
f 62/62/62 64/64/64 61/61/61 
f 45/45/45 16/16/16 47/47/47 
f 16/16/16 14/14/14 47/47/47 
f 67/67/67 66/66/66 65/65/65 
f 66/66/66 68/68/68 65/65/65 
f 41/41/41 12/12/12 43/43/43 
f 12/12/12 10/10/10 43/43/43 
f 33/33/33 4/4/4 35/35/35 
f 4/4/4 2/2/2 35/35/35 
f 57/57/57 26/26/26 59/59/59 
f 26/26/26 32/32/32 59/59/59 
f 71/71/71 70/70/70 69/69/69 
f 70/70/70 72/72/72 69/69/69 
f 75/75/75 74/74/74 73/73/73 
f 74/74/74 76/76/76 73/73/73 
f 79/79/79 78/78/78 77/77/77 
f 78/78/78 80/80/80 77/77/77 
f 83/83/83 82/82/82 81/81/81 
f 82/82/82 84/84/84 81/81/81 
f 87/87/87 86/86/86 85/85/85 
f 86/86/86 88/88/88 85/85/85 
f 83/83/83 89/89/89 82/82/82 
f 89/89/89 90/90/90 82/82/82 
f 93/93/93 92/92/92 91/91/91 
f 92/92/92 94/94/94 91/91/91 
f 79/79/79 87/87/87 78/78/78 
f 87/87/87 85/85/85 78/78/78 
f 89/89/89 95/95/95 90/90/90 
f 95/95/95 96/96/96 90/90/90 
f 70/70/70 3/3/3 72/72/72 
f 3/3/3 1/1/1 72/72/72 
f 78/78/78 11/11/11 80/80/80 
f 11/11/11 9/9/9 80/80/80 
f 99/99/99 98/98/98 97/97/97 
f 98/98/98 100/100/100 97/97/97 
f 96/96/96 31/31/31 90/90/90 
f 31/31/31 25/25/25 90/90/90 
f 103/103/103 102/102/102 101/101/101 
f 102/102/102 104/104/104 101/101/101 
f 88/88/88 22/22/22 85/85/85 
f 22/22/22 23/23/23 85/85/85 
f 73/73/73 8/8/8 75/75/75 
f 8/8/8 6/6/6 75/75/75 
f 82/82/82 15/15/15 84/84/84 
f 15/15/15 13/13/13 84/84/84 
f 107/107/107 106/106/106 105/105/105 
f 106/106/106 108/108/108 105/105/105 
f 111/111/111 110/110/110 109/109/109 
f 110/110/110 112/112/112 109/109/109 
f 115/115/115 114/114/114 113/113/113 
f 114/114/114 116/116/116 113/113/113 
f 119/119/119 118/118/118 117/117/117 
f 118/118/118 120/120/120 117/117/117 
f 123/123/123 122/122/122 121/121/121 
f 122/122/122 124/124/124 121/121/121 
f 127/127/127 126/126/126 125/125/125 
f 126/126/126 128/128/128 125/125/125 
f 131/131/131 130/130/130 129/129/129 
f 130/130/130 132/132/132 129/129/129 
f 135/135/135 134/134/134 133/133/133 
f 134/134/134 136/136/136 133/133/133 
f 139/139/139 138/138/138 137/137/137 
f 138/138/138 140/140/140 137/137/137 
f 143/143/143 142/142/142 141/141/141 
f 142/142/142 144/144/144 141/141/141 
f 147/147/147 146/146/146 145/145/145 
f 146/146/146 148/148/148 145/145/145 
f 151/151/151 150/150/150 149/149/149 
f 150/150/150 152/152/152 149/149/149 
f 155/155/155 154/154/154 153/153/153 
f 154/154/154 156/156/156 153/153/153 
f 159/159/159 158/158/158 157/157/157 
f 158/158/158 160/160/160 157/157/157 
f 163/163/163 162/162/162 161/161/161 
f 162/162/162 164/164/164 161/161/161 
f 167/167/167 166/166/166 165/165/165 
f 166/166/166 168/168/168 165/165/165 
f 171/171/171 170/170/170 169/169/169 
f 170/170/170 172/172/172 169/169/169 
f 175/175/175 174/174/174 173/173/173 
f 174/174/174 176/176/176 173/173/173 
f 179/179/179 178/178/178 177/177/177 
f 178/178/178 180/180/180 177/177/177 
f 183/183/183 182/182/182 181/181/181 
f 182/182/182 184/184/184 181/181/181 

